<?xml version="1.0" encoding="utf-8"?>
<!-- Generator: Adobe Illustrator 24.2.3, SVG Export Plug-In . SVG Version: 6.00 Build 0)  -->
<svg version="1.1" xmlns="http://www.w3.org/2000/svg" xmlns:xlink="http://www.w3.org/1999/xlink" x="0px" y="0px"
	 viewBox="0 0 1900 1090" style="enable-background:new 0 0 1900 1090;" xml:space="preserve">
<style type="text/css">
	.st0{fill:#FDEEEA;}
	.st1{fill:#FFFFFF;}
	.st2{fill:#1C2E34;}
	.st3{fill:#FF6E65;}
	.st4{fill:#FF9184;}
	.st5{fill:#FFB0A0;}
	.st6{fill:#0B181B;}
	.st7{fill:#007BDE;}
	.st8{fill:#0086FF;}
	.st9{fill:#00B1FF;}
	.st10{fill:#F9A498;}
	.st11{fill:none;stroke:#E98980;stroke-width:0.5;stroke-miterlimit:10;}
	.st12{fill:#0077C9;}
	.st13{fill:none;stroke:#0B181B;stroke-width:0.5266;stroke-linecap:round;stroke-linejoin:round;stroke-miterlimit:10;}
	.st14{fill:#FFBA99;}
	.st15{fill:none;stroke:#312220;stroke-width:0.5575;stroke-linecap:round;stroke-linejoin:round;stroke-miterlimit:10;}
	.st16{fill:#CB9DA8;}
	.st17{fill:#EAC8CE;}
	.st18{fill:#F6DAE0;}
	.st19{fill:none;stroke:#55382E;stroke-width:1.1607;stroke-miterlimit:10;}
</style>
<g id="BACKGROUND">
	<rect x="575" y="295" class="st0" width="750" height="500"/>
</g>
<g id="OBJECTS">
	<g>
		<g>
			<g>
				<g>
					<rect x="606.8" y="798.6" class="st1" width="25.8" height="91.1"/>
					<path class="st2" d="M687.2,788.5h-133c-13.7,0-24.8-11.1-24.8-24.8l0,0c0-13.7,11.1-24.8,24.8-24.8h133
						c13.7,0,24.8,11.1,24.8,24.8l0,0C711.9,777.4,700.8,788.5,687.2,788.5z"/>
					<rect x="596.8" y="777" class="st2" width="47.2" height="32.4"/>
					<rect x="596.8" y="874.9" class="st2" width="47.2" height="141.7"/>
					<rect x="484.4" y="999.2" class="st2" width="266.5" height="19.7"/>
					<rect x="484.4" y="999.2" class="st2" width="15.6" height="61.3"/>
					<path class="st2" d="M515.5,1060.5c0,13.5-11,24.5-24.5,24.5c-13.5,0-24.5-11-24.5-24.5c0-13.5,11-24.5,24.5-24.5
						C504.5,1036,515.5,1047,515.5,1060.5z"/>
					<rect x="735.3" y="999.2" class="st2" width="15.6" height="61.3"/>
					<path class="st2" d="M766.4,1060.5c0,13.5-11,24.5-24.5,24.5c-13.5,0-24.5-11-24.5-24.5c0-13.5,11-24.5,24.5-24.5
						C755.4,1036,766.4,1047,766.4,1060.5z"/>
				</g>
				<g>
					<g>
						<path class="st3" d="M785.4,767.2c-100.9,0-183-82.1-183-183V360.1c0-12.8,10.3-23.1,23.1-23.1c12.8,0,23.1,10.3,23.1,23.1
							v224.1c0,75.4,61.3,136.8,136.7,136.8c12.8,0,23.1,10.3,23.1,23.1S798.2,767.2,785.4,767.2z"/>
						<polygon class="st3" points="625.6,337 378.9,337 393.9,518 386.7,654.1 509.7,732.5 538.7,767.2 785.4,767.2 718.4,724.7 
							668.4,668 648.4,655.8 631.7,545.8 630.6,413.5 						"/>
					</g>
					<path class="st4" d="M538.7,767.2c-100.9,0-183-82.1-183-183V360.1c0-12.8,10.3-23.1,23.1-23.1c12.8,0,23.1,10.3,23.1,23.1
						v224.1c0,75.4,61.3,136.8,136.7,136.8c12.8,0,23.1,10.3,23.1,23.1S551.5,767.2,538.7,767.2z"/>
				</g>
			</g>
			<g>
				<g>
					<g>
						<g>
							<polygon class="st5" points="935.7,1030.6 933.8,898.1 866.5,894.6 868.4,1036.8 933.2,1037.2 							"/>
							<g>
								<path class="st6" d="M859,1009c0,0,55.6,22.9,81.7-13.2l114.5,69.5l-213.4-1.4L859,1009z"/>
								
									<rect x="938.6" y="967.8" transform="matrix(6.443136e-03 -1 1 6.443136e-03 -132.1773 2015.9412)" class="st1" width="19.7" height="213.4"/>
								<path class="st1" d="M939.3,1026.2c0.6-0.2,1.1-0.6,1.6-1.2c8.7-11.4,17.5-17.1,17.6-17.2c1.7-1.1,2.2-3.3,1-5
									c-1.2-1.7-3.5-2.1-5.2-1c-0.4,0.3-9.9,6.3-19.5,18.9c-1.2,1.6-0.8,3.8,0.8,5C936.7,1026.6,938.1,1026.7,939.3,1026.2z"/>
								<path class="st1" d="M957.7,1035.4c0.6-0.2,1.1-0.6,1.6-1.2c8.7-11.4,17.5-17.1,17.6-17.2c1.7-1.1,2.2-3.3,1-5
									c-1.2-1.6-3.5-2.1-5.2-1c-0.4,0.3-9.9,6.3-19.5,18.9c-1.2,1.6-0.8,3.8,0.8,5C955.1,1035.8,956.5,1035.9,957.7,1035.4z"/>
								<path class="st1" d="M976,1044.6c0.6-0.2,1.1-0.6,1.6-1.2c8.7-11.4,17.5-17.1,17.6-17.1c1.7-1.1,2.2-3.3,1-5
									c-1.2-1.6-3.5-2.1-5.2-1c-0.4,0.3-9.9,6.3-19.5,18.9c-1.2,1.6-0.8,3.8,0.8,5C973.4,1045,974.9,1045.1,976,1044.6z"/>
							</g>
						</g>
						<g>
							<g>
								<g>
									<path class="st7" d="M690.3,590.3l31.5,26.4c-9.2,56.4-39.6,107.6,17.5,107.6h101.3v232.9l113.6,1.5l6.3-285.3
										c0.9-45.4-35.6-82.6-81-82.7L690.3,590.3z"/>
									
										<rect x="833.4" y="914.6" transform="matrix(-1 -1.224647e-16 1.224647e-16 -1 1797.5654 1873.2791)" class="st8" width="130.7" height="44.1"/>
								</g>
							</g>
						</g>
					</g>
					<g>
						<g>
							<polygon class="st5" points="753.7,1030.6 751.7,898.1 684.5,894.6 686.4,1036.8 751.2,1037.2 							"/>
							<g>
								<path class="st6" d="M677,1009c0,0,55.6,22.9,81.7-13.2l114.5,69.5l-213.4-1.4L677,1009z"/>
								
									<rect x="756.5" y="967.8" transform="matrix(6.443115e-03 -1 1 6.443115e-03 -313.0503 1833.899)" class="st1" width="19.7" height="213.4"/>
								<path class="st1" d="M757.3,1026.2c0.6-0.2,1.1-0.6,1.6-1.2c8.7-11.4,17.5-17.1,17.6-17.2c1.7-1.1,2.2-3.3,1-5
									c-1.2-1.7-3.5-2.1-5.2-1c-0.4,0.3-9.9,6.3-19.5,18.9c-1.2,1.6-0.8,3.8,0.8,5C754.7,1026.6,756.1,1026.7,757.3,1026.2z"/>
								<path class="st1" d="M775.6,1035.4c0.6-0.2,1.1-0.6,1.6-1.2c8.7-11.4,17.5-17.1,17.6-17.2c1.7-1.1,2.2-3.3,1-5
									c-1.2-1.6-3.5-2.1-5.2-1c-0.4,0.3-9.9,6.3-19.5,18.9c-1.2,1.6-0.8,3.8,0.8,5C773,1035.8,774.5,1035.9,775.6,1035.4z"/>
								<path class="st1" d="M794,1044.6c0.6-0.2,1.1-0.6,1.6-1.2c8.7-11.4,17.5-17.1,17.6-17.1c1.7-1.1,2.2-3.3,1-5
									c-1.2-1.6-3.5-2.1-5.2-1c-0.4,0.3-9.9,6.3-19.5,18.9c-1.2,1.6-0.8,3.8,0.8,5C791.4,1045,792.8,1045.1,794,1044.6z"/>
							</g>
						</g>
						<g>
							<g>
								<g>
									<path class="st8" d="M547.3,590.3l-4.3,26.4c-9.2,56.4,34.3,107.6,91.4,107.6h27.4v232.9l113.6,1.5l6.3-285.3
										c0.9-45.4-35.6-82.6-81-82.7L547.3,590.3z"/>
									
										<rect x="654.6" y="914.6" transform="matrix(-1 -1.224647e-16 1.224647e-16 -1 1439.8622 1873.2791)" class="st9" width="130.7" height="44.1"/>
								</g>
							</g>
						</g>
					</g>
				</g>
				<g>
					<g>
						<g>
							<polygon class="st10" points="829.9,490.1 983,522.4 991.3,553.1 790.8,555.9 774.7,472.7 							"/>
							<path class="st10" d="M959.8,520.6c0,0,31.3-19,62.3-11.1c20.5,5.2,40.7,24.9,39.2,46l0,0l-124.6-1.6L959.8,520.6z"/>
						</g>
						<g>
							<path class="st10" d="M838.7,379.4l17.7,131.1c0,0-76.5,40.3-74.9,35.4s-17.2-166.5-17.2-166.5H838.7z"/>
							<path class="st6" d="M770.3,271c0,0,56.2,8.8,69,56.8c16.7,62.5,23.1,71.5,23.1,71.5l-84.9,12.4L770.3,271z"/>
						</g>
					</g>
					<g>
						<g>
							<path class="st6" d="M662.4,255.1l108,15.9c10.9,1.6,19.1,11,19.2,22l2.6,256.1l-240.9,0.7l-16.3-223.4l9-30.3
								c4.2-14.2,16.1-24.7,30.7-27L662.4,255.1z"/>
						</g>
					</g>
					<g>
						<g>
							<polygon class="st5" points="591.6,398.4 546.5,515 477,454.4 504,370.5 							"/>
							<path class="st6" d="M635.6,264.1c0,0-83.8-0.7-104.7,24C504.6,319.3,473.5,399,473.5,399l136.4,30L635.6,264.1z"/>
						</g>
						<g>
							<g>
								<path class="st5" d="M554.3,495.5l157.3,35l-6.5,34.8l-185.9,1.2c0,0-83.2-16.8-42.3-112.2L554.3,495.5z"/>
								<path class="st5" d="M711.7,530.6c0,0,37-14.5,67.6-8.8c20.8,3.9,34.8,23.7,33.2,44.8l0,0l-123.6-1.1L711.7,530.6z"/>
							</g>
							<line class="st11" x1="554.3" y1="495.5" x2="515.5" y2="490.1"/>
						</g>
					</g>
				</g>
				<g>
					<path class="st6" d="M734.5,64.4c0,0,42.8,40.2,0.6,54.8L734.5,64.4z"/>
					<path class="st12" d="M708.9,136c-0.4,16.3,12,30,27.8,30.5c15.8,0.5,29-12.3,29.4-28.7c0.4-16.3-12-30-27.8-30.5
						C722.6,106.9,709.4,119.7,708.9,136z"/>
					<path class="st5" d="M701.2,199.1l2.2,57c0.8,20-10.7,31.2-29.8,31.7l0,0c-16.3,0.5-34.5-6.7-34.5-24.4l0.7-89.9L701.2,199.1z"
						/>
					<path class="st6" d="M702.8,237c0,0-46.3,5.7-62.8-46c-5.2-16.3,61.1,2.2,61.1,2.2L702.8,237z"/>
					<path class="st5" d="M684.7,216.4L684.7,216.4c32.6-1.2,58.4-28.8,58.3-56.3l-0.6-57.5c-0.2-34.5-26.8-62.7-60.2-63.7l0,0
						c-34.2-1.1-68.6,26.5-69.6,61.7l1,44.8C614.5,185.8,645.6,215.2,684.7,216.4z"/>
					<g>
						<polyline class="st13" points="708.7,144.5 710.3,155.6 702.2,156.2 						"/>
						<path class="st6" d="M672.6,110.9c0,0,13.3-1.7,13.7,3.9c0,0,0.1,3.8-11.5,5c-11.6,1.2-14.7,0.5-15.9-3.1
							C657.7,113.3,666.3,111.2,672.6,110.9z"/>
						<path class="st6" d="M726.4,109.1c0,0-11.1-0.7-11.7,4.6c0,0-0.4,3.6,9.3,4c9.7,0.4,12.8-1,13.6-3.9
							C738.4,110.4,731.6,108.9,726.4,109.1z"/>
						<path class="st6" d="M719.5,132.7c0,3.2,2.6,5.8,5.7,5.8c3.1,0,5.6-2.6,5.6-5.8c0-3.2-2.6-5.8-5.7-5.8
							C721.9,126.9,719.4,129.5,719.5,132.7z"/>
						<path class="st6" d="M670.3,133c0,3.2,2.6,5.8,5.7,5.8c3.1,0,5.6-2.6,5.6-5.8c0-3.2-2.6-5.8-5.7-5.8
							C672.8,127.2,670.3,129.8,670.3,133z"/>
						<line class="st13" x1="696.2" y1="175.7" x2="711.1" y2="173.6"/>
					</g>
					<path class="st6" d="M776.6,45l-24.7-3.5c7.2-4.6,14.5-9.2,14.5-9.2s-16.9-5.8-39.3-5.8c-14.6-7.9-33.4-13.3-53-13.5
						c-28.7-0.4-53.2,15.2-62.1,32.3l0,0c0,0-23.8-1.5-27.1,25.5c-4.2,34.9,37.8,92.7,37.8,92.7l4.7-45.7
						C653.5,116,654.7,93,652.6,78c11.7,1,52.2,3.7,83.8-3.4c3.4-0.4,8.1-1.3,12.1-3.3C763.5,66.1,774.6,57.9,776.6,45z"/>
					<g>
						<path class="st14" d="M583.7,145.5c-0.4,13.1,9.6,24,22.3,24.4c12.7,0.4,23.2-9.9,23.6-22.9c0.4-13.1-9.6-24-22.3-24.4
							C594.6,122.1,584,132.4,583.7,145.5z"/>
						<path class="st15" d="M614.2,152.1c0,0,0.5-17.1-15.5-15"/>
					</g>
					<g>
						<path class="st12" d="M695.5,12.2l0.7,3.3c0,0-41.4,4.4-60.3,29.5c-21,28-21.4,65.9-21.4,65.9l-9,0.8l0.6-60L624.2,33
							l28.6-17.1l20-6.4L695.5,12.2z"/>
						<g>
							<path class="st12" d="M639.5,132.7c4.3,19.7-8.4,39.2-33.4,44.6c-17.7,3.8-26.3-11-30.6-30.7c-4.3-19.7,6.6-38.8,24.3-42.6
								C617.4,100.1,635.2,113,639.5,132.7z"/>
							<path class="st8" d="M630.3,134.7c4.3,19.7-6.6,38.8-24.3,42.6c-17.7,3.8-35.5-9-39.7-28.7c-4.3-19.7,6.6-38.8,24.3-42.6
								C608.3,102.1,626,115,630.3,134.7z"/>
						</g>
						<path class="st8" d="M592.8,110.1c0,0-3.4-21.9,1.8-45.9c6.6-30.3,30.8-51.9,61.4-57.5c2.3-0.4,4.8-0.8,7.4-1.2
							c8.9-1.2,18.5-0.9,26.5,3c2,1,4,2.2,5.7,3.5c0,0-40.2,1.7-59.6,23.2c-21.8,24.2-27.5,56.8-26.2,78.5L592.8,110.1z"/>
					</g>
					<path class="st5" d="M617,262.3l45.4-7.3l60.3,8.9c0,0,3.7,35.2-47.3,36.7C624.4,302.1,617,262.3,617,262.3z"/>
				</g>
			</g>
		</g>
		<g>
			<g>
				<g>
					<g>
						<polygon class="st16" points="891.2,437 912.6,452.4 1064.5,324.1 1434.5,119.8 1414.6,105.4 1160.7,183.3 						"/>
						<path class="st16" d="M943.6,117.2l-60.2,299.3c-2.6,12.8,7.2,24.8,20.3,24.8h433.6c9.8,0,18.2-6.8,20.2-16.4l64.1-299.3
							c2.8-12.9-7.1-25-20.2-25H963.9C954.1,100.6,945.6,107.5,943.6,117.2z"/>
						<path class="st17" d="M963.2,131.3L903,430.6c-2.6,12.8,7.2,24.8,20.3,24.8h433.6c9.8,0,18.2-6.8,20.2-16.4l64.1-299.3
							c2.8-12.9-7.1-25-20.2-25H983.5C973.6,114.7,965.1,121.6,963.2,131.3z"/>
						<polygon class="st16" points="1121,376.2 1113,455.3 1148.1,455.3 						"/>
						<polygon class="st18" points="1121,374.6 1157,551.8 1287.8,551.8 1226.5,374.6 						"/>
						<circle class="st1" cx="1189.8" cy="238.3" r="29"/>
						<path class="st17" d="M1365.3,535.3h-308.6c-4.7,0-8.6,3.8-8.6,8.6l0,0c0,4.7,3.8,8.6,8.6,8.6h308.6c4.7,0,8.6-3.8,8.6-8.6
							l0,0C1373.8,539.1,1370,535.3,1365.3,535.3z"/>
						<path class="st17" d="M980.6,535.3H817.2c-4.7,0-8.6,3.8-8.6,8.6l0,0c0,4.7,3.8,8.6,8.6,8.6h163.4c4.7,0,8.6-3.8,8.6-8.6l0,0
							C989.2,539.1,985.3,535.3,980.6,535.3z"/>
					</g>
				</g>
				<g>
					<line class="st19" x1="778.6" y1="579.7" x2="778.6" y2="1085"/>
					<line class="st19" x1="458.3" y1="579.7" x2="458.3" y2="1085"/>
					<line class="st19" x1="1555.9" y1="579.7" x2="1555.9" y2="1085"/>
					<line class="st19" x1="1235.6" y1="579.7" x2="1235.6" y2="1085"/>
					<rect x="383.9" y="551.8" class="st17" width="303" height="40.6"/>
					<rect x="686.3" y="551.8" class="st1" width="952" height="40.6"/>
				</g>
			</g>
			<line class="st19" x1="1792.6" y1="1085" x2="107.4" y2="1085"/>
		</g>
	</g>
</g>
<g id="DESIGNED_BY_FREEPIK">
</g>
</svg>
