<?xml version="1.0" encoding="utf-8"?>
<!-- Generator: Adobe Illustrator 24.2.3, SVG Export Plug-In . SVG Version: 6.00 Build 0)  -->
<svg version="1.1" xmlns="http://www.w3.org/2000/svg" xmlns:xlink="http://www.w3.org/1999/xlink" x="0px" y="0px"
	 viewBox="0 0 866.1 700" style="enable-background:new 0 0 866.1 700;" xml:space="preserve">
<style type="text/css">
	.st0{fill:#FDEEEA;}
	.st1{fill:#FFFFFF;}
	.st2{fill:#1C2E34;}
	.st3{fill:#FF6E65;}
	.st4{fill:#FF9184;}
	.st5{fill:#FFB0A0;}
	.st6{fill:#0B181B;}
	.st7{fill:#007BDE;}
	.st8{fill:#0086FF;}
	.st9{fill:#00B1FF;}
	.st10{fill:#F9A498;}
	.st11{fill:none;stroke:#E98980;stroke-width:0.5;stroke-miterlimit:10;}
	.st12{fill:#0077C9;}
	.st13{fill:none;stroke:#0B181B;stroke-width:0.5266;stroke-linecap:round;stroke-linejoin:round;stroke-miterlimit:10;}
	.st14{fill:#FFBA99;}
	.st15{fill:none;stroke:#312220;stroke-width:0.5575;stroke-linecap:round;stroke-linejoin:round;stroke-miterlimit:10;}
	.st16{fill:#CB9DA8;}
	.st17{fill:#EAC8CE;}
	.st18{fill:#F6DAE0;}
	.st19{fill:none;stroke:#55382E;stroke-width:1.1607;stroke-miterlimit:10;}
</style>
<g id="BACKGROUND">
	<rect x="40" y="100" class="st0" width="750" height="500"/>
</g>
<g id="OBJECTS">
	<g>
		<g>
			<g>
				<g>
					<rect x="182.2" y="517.5" class="st1" width="16.7" height="59.1"/>
					<path class="st2" d="M234.3,511h-86.2c-8.9,0-16-7.2-16-16l0,0c0-8.9,7.2-16,16-16h86.2c8.9,0,16,7.2,16,16l0,0
						C250.3,503.8,243.2,511,234.3,511z"/>
					<rect x="175.8" y="503.5" class="st2" width="30.6" height="21"/>
					<rect x="175.8" y="567" class="st2" width="30.6" height="91.9"/>
					<rect x="102.9" y="647.5" class="st2" width="172.7" height="12.8"/>
					<rect x="102.9" y="647.5" class="st2" width="10.1" height="39.7"/>
					<path class="st2" d="M123,687.3c0,8.8-7.1,15.9-15.9,15.9c-8.8,0-15.9-7.1-15.9-15.9s7.1-15.9,15.9-15.9
						C115.9,671.4,123,678.5,123,687.3z"/>
					<rect x="265.5" y="647.5" class="st2" width="10.1" height="39.7"/>
					<path class="st2" d="M285.6,687.3c0,8.8-7.1,15.9-15.9,15.9c-8.8,0-15.9-7.1-15.9-15.9s7.1-15.9,15.9-15.9
						C278.5,671.4,285.6,678.5,285.6,687.3z"/>
				</g>
				<g>
					<g>
						<path class="st3" d="M298,497.2c-65.4,0-118.6-53.2-118.6-118.6V233.3c0-8.3,6.7-15,15-15c8.3,0,15,6.7,15,15v145.3
							c0,48.9,39.8,88.6,88.6,88.6c8.3,0,15,6.7,15,15S306.3,497.2,298,497.2z"/>
						<polygon class="st3" points="194.4,218.3 34.5,218.3 44.2,335.6 39.6,423.9 119.3,474.6 138.1,497.2 298,497.2 254.5,469.6 
							222.1,432.9 209.2,424.9 198.4,353.6 197.6,267.9 						"/>
					</g>
					<path class="st4" d="M138.1,497.2c-65.4,0-118.6-53.2-118.6-118.6V233.3c0-8.3,6.7-15,15-15c8.3,0,15,6.7,15,15v145.3
						c0,48.9,39.8,88.6,88.6,88.6c8.3,0,15,6.7,15,15S146.4,497.2,138.1,497.2z"/>
				</g>
			</g>
			<g>
				<g>
					<g>
						<g>
							<polygon class="st5" points="395.4,667.9 394.1,582 350.6,579.7 351.8,671.9 393.8,672.2 							"/>
							<g>
								<path class="st6" d="M345.7,653.9c0,0,36,14.8,53-8.5l74.2,45.1l-138.3-0.9L345.7,653.9z"/>
								
									<rect x="397.3" y="627.2" transform="matrix(6.443136e-03 -1 1 6.443136e-03 -295.2964 1095.4615)" class="st1" width="12.7" height="138.3"/>
								<path class="st1" d="M397.7,665.1c0.4-0.2,0.7-0.4,1-0.8c5.7-7.4,11.3-11.1,11.4-11.1c1.1-0.7,1.4-2.2,0.7-3.2
									c-0.7-1.1-2.3-1.3-3.4-0.6c-0.3,0.2-6.4,4.1-12.7,12.3c-0.8,1-0.5,2.5,0.5,3.3C396.1,665.3,397,665.4,397.7,665.1z"/>
								<path class="st1" d="M409.6,671c0.4-0.2,0.7-0.4,1-0.8c5.7-7.4,11.3-11.1,11.4-11.1c1.1-0.7,1.4-2.2,0.7-3.2
									c-0.7-1.1-2.3-1.3-3.4-0.6c-0.3,0.2-6.4,4.1-12.7,12.3c-0.8,1-0.5,2.5,0.5,3.2C408,671.3,408.9,671.3,409.6,671z"/>
								<path class="st1" d="M421.5,677c0.4-0.2,0.7-0.4,1-0.8c5.7-7.4,11.3-11.1,11.4-11.1c1.1-0.7,1.4-2.2,0.7-3.2
									c-0.7-1.1-2.3-1.3-3.4-0.6c-0.3,0.2-6.4,4.1-12.7,12.3c-0.8,1-0.5,2.5,0.5,3.2C419.9,677.2,420.8,677.3,421.5,677z"/>
							</g>
						</g>
						<g>
							<g>
								<g>
									<path class="st7" d="M236.3,382.5l20.4,17.1c-6,36.5-25.7,69.7,11.4,69.7h65.6v150.9l73.7,1l4.1-184.9
										c0.6-29.4-23.1-53.6-52.5-53.6L236.3,382.5z"/>
									
										<rect x="329.1" y="592.7" transform="matrix(-1 -1.224647e-16 1.224647e-16 -1 742.9307 1213.9763)" class="st8" width="84.7" height="28.6"/>
								</g>
							</g>
						</g>
					</g>
					<g>
						<g>
							<polygon class="st5" points="277.4,667.9 276.2,582 232.6,579.7 233.8,671.9 275.8,672.2 							"/>
							<g>
								<path class="st6" d="M227.7,653.9c0,0,36,14.8,53-8.5l74.2,45.1l-138.3-0.9L227.7,653.9z"/>
								
									<rect x="279.3" y="627.2" transform="matrix(6.443115e-03 -1 1 6.443115e-03 -412.5289 977.4712)" class="st1" width="12.7" height="138.3"/>
								<path class="st1" d="M279.7,665.1c0.4-0.2,0.7-0.4,1-0.8c5.7-7.4,11.3-11.1,11.4-11.1c1.1-0.7,1.4-2.2,0.7-3.2
									c-0.7-1.1-2.3-1.3-3.4-0.6c-0.3,0.2-6.4,4.1-12.7,12.3c-0.8,1-0.5,2.5,0.5,3.3C278.1,665.3,279,665.4,279.7,665.1z"/>
								<path class="st1" d="M291.6,671c0.4-0.2,0.7-0.4,1-0.8c5.7-7.4,11.3-11.1,11.4-11.1c1.1-0.7,1.4-2.2,0.7-3.2
									c-0.7-1.1-2.3-1.3-3.4-0.6c-0.3,0.2-6.4,4.1-12.7,12.3c-0.8,1-0.5,2.5,0.5,3.2C290,671.3,290.9,671.3,291.6,671z"/>
								<path class="st1" d="M303.5,677c0.4-0.2,0.7-0.4,1-0.8c5.7-7.4,11.3-11.1,11.4-11.1c1.1-0.7,1.4-2.2,0.7-3.2
									c-0.7-1.1-2.3-1.3-3.4-0.6c-0.3,0.2-6.4,4.1-12.7,12.3c-0.8,1-0.5,2.5,0.5,3.2C301.9,677.2,302.8,677.3,303.5,677z"/>
							</g>
						</g>
						<g>
							<g>
								<g>
									<path class="st8" d="M143.6,382.5l-2.8,17.1c-6,36.5,22.2,69.7,59.3,69.7h17.7v150.9l73.7,1l4.1-184.9
										c0.6-29.4-23.1-53.6-52.5-53.6L143.6,382.5z"/>
									
										<rect x="213.2" y="592.7" transform="matrix(-1 -1.224647e-16 1.224647e-16 -1 511.086 1213.9763)" class="st9" width="84.7" height="28.6"/>
								</g>
							</g>
						</g>
					</g>
				</g>
				<g>
					<g>
						<g>
							<polygon class="st10" points="326.8,317.6 426.1,338.5 431.4,358.4 301.5,360.2 291.1,306.3 							"/>
							<path class="st10" d="M411,337.3c0,0,20.3-12.3,40.4-7.2c13.3,3.4,26.4,16.1,25.4,29.8l0,0l-80.7-1L411,337.3z"/>
						</g>
						<g>
							<path class="st10" d="M332.5,245.8l11.5,85c0,0-49.6,26.1-48.6,23c1-3.1-11.1-107.9-11.1-107.9H332.5z"/>
							<path class="st6" d="M288.2,175.5c0,0,36.4,5.7,44.7,36.8c10.8,40.5,14.9,46.3,14.9,46.3l-55.1,8L288.2,175.5z"/>
						</g>
					</g>
					<g>
						<g>
							<path class="st6" d="M218.2,165.2l70,10.3c7.1,1,12.4,7.1,12.4,14.3l1.7,166l-156.1,0.5l-10.6-144.8l5.8-19.6
								c2.7-9.2,10.5-16,19.9-17.5L218.2,165.2z"/>
						</g>
					</g>
					<g>
						<g>
							<polygon class="st5" points="172.4,258.1 143.2,333.7 98.1,294.4 115.6,240.1 							"/>
							<path class="st6" d="M200.9,171.1c0,0-54.3-0.5-67.8,15.6c-17,20.2-37.2,71.9-37.2,71.9l88.4,19.5L200.9,171.1z"/>
						</g>
						<g>
							<g>
								<path class="st5" d="M148.2,321.1l102,22.7l-4.2,22.6l-120.5,0.8c0,0-53.9-10.9-27.4-72.7L148.2,321.1z"/>
								<path class="st5" d="M250.2,343.8c0,0,24-9.4,43.8-5.7c13.5,2.5,22.5,15.4,21.5,29l0,0l-80.1-0.7L250.2,343.8z"/>
							</g>
							<line class="st11" x1="148.2" y1="321.1" x2="123" y2="317.6"/>
						</g>
					</g>
				</g>
				<g>
					<path class="st6" d="M265,41.6c0,0,27.7,26.1,0.4,35.5L265,41.6z"/>
					<path class="st12" d="M248.4,88.1c-0.3,10.6,7.8,19.4,18,19.8c10.3,0.3,18.8-8,19.1-18.6c0.3-10.6-7.8-19.4-18-19.8
						C257.2,69.2,248.7,77.5,248.4,88.1z"/>
					<path class="st5" d="M243.4,129l1.5,37c0.5,13-6.9,20.2-19.3,20.6l0,0c-10.6,0.3-22.4-4.4-22.4-15.8l0.4-58.3L243.4,129z"/>
					<path class="st6" d="M244.4,153.5c0,0-30,3.7-40.7-29.8c-3.4-10.6,39.6,1.4,39.6,1.4L244.4,153.5z"/>
					<path class="st5" d="M232.7,140.2L232.7,140.2c21.1-0.8,37.9-18.7,37.8-36.5l-0.4-37.3c-0.1-22.3-17.4-40.6-39-41.3l0,0
						c-22.1-0.7-44.5,17.1-45.1,40l0.6,29.1C187.2,120.3,207.4,139.4,232.7,140.2z"/>
					<g>
						<polyline class="st13" points="248.3,93.6 249.3,100.8 244.1,101.2 						"/>
						<path class="st6" d="M224.8,71.8c0,0,8.6-1.1,8.9,2.6c0,0,0.1,2.5-7.4,3.3c-7.5,0.8-9.5,0.3-10.3-2
							C215.2,73.3,220.8,72,224.8,71.8z"/>
						<path class="st6" d="M259.7,70.6c0,0-7.2-0.5-7.6,3c0,0-0.2,2.3,6,2.6c6.3,0.3,8.3-0.6,8.8-2.5
							C267.5,71.5,263.1,70.5,259.7,70.6z"/>
						<path class="st6" d="M255.2,85.9c0,2.1,1.7,3.7,3.7,3.7c2,0,3.6-1.7,3.6-3.8c0-2.1-1.7-3.7-3.7-3.7
							C256.8,82.2,255.2,83.9,255.2,85.9z"/>
						<path class="st6" d="M223.4,86.1c0,2.1,1.7,3.7,3.7,3.7c2,0,3.6-1.7,3.6-3.8c0-2.1-1.7-3.7-3.7-3.7
							C225,82.4,223.4,84.1,223.4,86.1z"/>
						<line class="st13" x1="240.2" y1="113.8" x2="249.8" y2="112.4"/>
					</g>
					<path class="st6" d="M292.3,29.1l-16-2.3c4.7-3,9.4-5.9,9.4-5.9s-10.9-3.8-25.5-3.7c-9.5-5.1-21.6-8.6-34.3-8.8
						c-18.6-0.2-34.5,9.9-40.2,21l0,0c0,0-15.4-0.9-17.6,16.5c-2.7,22.7,24.5,60.1,24.5,60.1l3.1-29.6c16.9-1.2,17.7-16.1,16.4-25.8
						c7.6,0.6,33.8,2.4,54.3-2.2c2.2-0.3,5.3-0.9,7.8-2.2C283.8,42.8,291,37.5,292.3,29.1z"/>
					<g>
						<path class="st14" d="M167.2,94.2c-0.2,8.5,6.2,15.5,14.4,15.8c8.2,0.3,15-6.4,15.3-14.9c0.2-8.5-6.2-15.5-14.4-15.8
							C174.3,79.1,167.4,85.7,167.2,94.2z"/>
						<path class="st15" d="M187,98.5c0,0,0.3-11.1-10-9.7"/>
					</g>
					<g>
						<path class="st12" d="M239.7,7.8l0.5,2.1c0,0-26.8,2.8-39.1,19.1c-13.6,18.2-13.8,42.7-13.8,42.7l-5.8,0.5l0.4-38.9l11.6-12.1
							L212,10.2L225,6L239.7,7.8z"/>
						<g>
							<path class="st12" d="M203.4,85.9c2.8,12.8-5.5,25.4-21.7,28.9c-11.5,2.5-17-7.1-19.8-19.9c-2.8-12.8,4.3-25.1,15.7-27.6
								C189.1,64.8,200.6,73.1,203.4,85.9z"/>
							<path class="st8" d="M197.5,87.2c2.8,12.8-4.3,25.1-15.7,27.6c-11.5,2.5-23-5.9-25.8-18.6c-2.8-12.8,4.3-25.1,15.7-27.6
								S194.7,74.4,197.5,87.2z"/>
						</g>
						<path class="st8" d="M173.1,71.3c0,0-2.2-14.2,1.2-29.7c4.3-19.6,20-33.7,39.8-37.3c1.5-0.3,3.1-0.5,4.8-0.8
							c5.8-0.8,12-0.6,17.2,2c1.3,0.7,2.6,1.4,3.7,2.3c0,0-26.1,1.1-38.6,15c-14.1,15.7-17.8,36.8-17,50.9L173.1,71.3z"/>
					</g>
					<path class="st5" d="M188.8,169.9l29.4-4.7l39.1,5.8c0,0,2.4,22.8-30.7,23.8S188.8,169.9,188.8,169.9z"/>
				</g>
			</g>
		</g>
		<g>
			<g>
				<g>
					<g>
						<polygon class="st16" points="366.5,283.1 380.4,293.1 478.9,210 718.7,77.6 705.8,68.2 541.2,118.7 						"/>
						<path class="st16" d="M400.5,75.9l-39,194c-1.7,8.3,4.7,16.1,13.1,16.1h281c6.3,0,11.8-4.4,13.1-10.6l41.5-194
							c1.8-8.3-4.6-16.2-13.1-16.2H413.7C407.3,65.1,401.8,69.6,400.5,75.9z"/>
						<path class="st17" d="M413.2,85l-39,194c-1.7,8.3,4.7,16.1,13.1,16.1h281c6.3,0,11.8-4.4,13.1-10.6l41.5-194
							c1.8-8.3-4.6-16.2-13.1-16.2H426.4C420,74.2,414.5,78.7,413.2,85z"/>
						<polygon class="st16" points="515.5,243.7 510.3,295 533.1,295 						"/>
						<polygon class="st18" points="515.5,242.7 538.8,357.5 623.6,357.5 583.8,242.7 						"/>
						<circle class="st1" cx="560.1" cy="154.3" r="18.8"/>
						<path class="st17" d="M673.8,346.8h-200c-3.1,0-5.5,2.5-5.5,5.5l0,0c0,3.1,2.5,5.5,5.5,5.5h200c3.1,0,5.5-2.5,5.5-5.5l0,0
							C679.4,349.3,676.9,346.8,673.8,346.8z"/>
						<path class="st17" d="M424.5,346.8H318.6c-3.1,0-5.5,2.5-5.5,5.5l0,0c0,3.1,2.5,5.5,5.5,5.5h105.9c3.1,0,5.5-2.5,5.5-5.5l0,0
							C430,349.3,427.6,346.8,424.5,346.8z"/>
					</g>
				</g>
				<g>
					<line class="st19" x1="293.6" y1="375.6" x2="293.6" y2="703.1"/>
					<line class="st19" x1="86" y1="375.6" x2="86" y2="703.1"/>
					<line class="st19" x1="797.4" y1="375.6" x2="797.4" y2="703.1"/>
					<line class="st19" x1="589.8" y1="375.6" x2="589.8" y2="703.1"/>
					<rect x="37.7" y="357.5" class="st17" width="196.4" height="26.3"/>
					<rect x="233.8" y="357.5" class="st1" width="617" height="26.3"/>
				</g>
			</g>
			<line class="st19" x1="950.8" y1="703.1" x2="-141.5" y2="703.1"/>
		</g>
	</g>
</g>
<g id="DESIGNED_BY_FREEPIK">
</g>
</svg>
