<?xml version="1.0" encoding="utf-8"?>
<!-- Generator: Adobe Illustrator 24.2.3, SVG Export Plug-In . SVG Version: 6.00 Build 0)  -->
<svg version="1.1" xmlns="http://www.w3.org/2000/svg" xmlns:xlink="http://www.w3.org/1999/xlink" x="0px" y="0px"
	 viewBox="0 0 1099.6 969.5" style="enable-background:new 0 0 1099.6 969.5;" xml:space="preserve">
<style type="text/css">
	.st0{fill:url(#SVGID_1_);}
	.st1{opacity:0.5;fill:#4C3DB1;}
	.st2{opacity:0.1;fill:#FFFFFF;}
	.st3{opacity:0.2;fill:#FFFFFF;}
	.st4{opacity:0.7;}
	.st5{fill:#62A169;}
	.st6{fill:#FDB929;}
	.st7{fill:#FFD79F;}
	.st8{fill:#FFFFFF;}
	.st9{fill:#1C2E34;}
	.st10{fill:#FF6E65;}
	.st11{fill:#FF9184;}
	.st12{fill:#FFB0A0;}
	.st13{fill:#0B181B;}
	.st14{fill:#007BDE;}
	.st15{fill:#0086FF;}
	.st16{fill:#00B1FF;}
	.st17{fill:#F9A498;}
	.st18{fill:none;stroke:#E98980;stroke-width:0.5;stroke-miterlimit:10;}
	.st19{fill:#0077C9;}
	.st20{fill:none;stroke:#0B181B;stroke-width:0.5266;stroke-linecap:round;stroke-linejoin:round;stroke-miterlimit:10;}
	.st21{fill:#FFBA99;}
	.st22{fill:none;stroke:#312220;stroke-width:0.5575;stroke-linecap:round;stroke-linejoin:round;stroke-miterlimit:10;}
	.st23{fill:#CB9DA8;}
	.st24{fill:#EAC8CE;}
	.st25{fill:#F6DAE0;}
	.st26{fill:none;stroke:#55382E;stroke-width:12;stroke-miterlimit:10;}
	.st27{fill:#37332D;}
	.st28{fill:#CC807A;}
</style>
<g id="BACKGROUND">
	<linearGradient id="SVGID_1_" gradientUnits="userSpaceOnUse" x1="160.6158" y1="-160.6158" x2="1063.8828" y2="742.6511">
		<stop  offset="0" style="stop-color:#C172E9"/>
		<stop  offset="0.1514" style="stop-color:#BB70E7"/>
		<stop  offset="0.3506" style="stop-color:#AB69E1"/>
		<stop  offset="0.5763" style="stop-color:#8F5ED7"/>
		<stop  offset="0.8198" style="stop-color:#6A4ECA"/>
		<stop  offset="1" style="stop-color:#4941BE"/>
	</linearGradient>
	<path class="st0" d="M0,0h1094.7c2.8,0,5,2.2,5,5v701.9L616,956.6c-56.5,29.2-126.1,7.1-155.4-49.4L5,29.5C0,20.5,0,0,0,0z"/>
	<ellipse class="st1" cx="648.2" cy="682.8" rx="257.3" ry="20.3"/>
	<g>
		<circle class="st2" cx="368.6" cy="207.3" r="66.3"/>
		<circle class="st3" cx="370.6" cy="207.3" r="24.2"/>
	</g>
	<g class="st4">
		<circle class="st2" cx="1011.3" cy="168" r="36.3"/>
		<circle class="st3" cx="1012.4" cy="168" r="13.3"/>
	</g>
	<circle class="st2" cx="243.9" cy="283.8" r="24.2"/>
	<circle class="st2" cx="500.2" cy="153.8" r="14.2"/>
	<g>
		<g>
			<g>
				<path class="st5" d="M402.5,604v-0.8c-0.2-2.9-0.3-5.7-0.3-8.6c-1.3-13.1-0.5-26.5-3.6-39.4c-1.8-7.6-5.2-14.7-10.2-20.8
					c-4.9-5.9-11.2-10.6-18-14c-8.3-4.2-30.6-10.1-32.7-11.2c-0.6-0.4-1.4,0.4-1,1c8.1,13.8,10,30.4,19,43.8
					c8.9,13.3,23.1,21.3,34.1,32.6C393.8,590.8,401.8,602.7,402.5,604z"/>
				<path class="st5" d="M394.3,573c0.1-0.1,0.2-0.2,0.2-0.4c1.1-4.4,0.9-9.2-0.6-13.5c-0.3-0.9-1.8-0.5-1.4,0.4
					c1.3,3.6,1.6,7.4,0.9,11.2c-1.6-3.9-3.4-7.7-5.4-11.4c0,0,0,0,0-0.1c1-4.4,0.8-9-0.5-13.3c-0.3-0.9-1.7-0.5-1.4,0.4
					c1.1,3.6,1.4,7.3,0.8,11c-1.7-2.9-3.5-5.8-5.4-8.6c0.1-0.1,0.1-0.2,0.1-0.4c-0.1-5-1.1-10-2.9-14.7c-0.3-0.9-1.8-0.5-1.4,0.4
					c1.6,4,2.4,8.2,2.7,12.5c-1-1.4-2-2.8-3-4.1c-1.2-1.5-2.3-3.1-3.5-4.6c-1.1-4.8-3-9.4-5.6-13.6c-0.5-0.8-1.8-0.1-1.3,0.8
					c2,3.1,3.5,6.5,4.6,10c-1.9-2.2-3.8-4.3-5.9-6.4c-4.7-4.5-10.2-8.4-16.4-10.6c-0.9-0.3-1.3,1.1-0.4,1.4
					c9.5,3.3,16.9,10.6,23.2,18.3c-6.2-1.6-12.2-4.3-17.5-7.9c-0.8-0.5-1.6,0.8-0.8,1.3c5.8,3.9,12.3,6.7,19.1,8.3
					c0.2,0.2,0.5,0.2,0.7,0.2c0.6,0.7,1.1,1.5,1.7,2.2c1.6,2.1,3.1,4.2,4.6,6.4c-5.7-0.5-11.1-2.5-15.8-5.7
					c-0.8-0.5-1.5,0.8-0.8,1.3c5.2,3.5,11.4,5.6,17.7,6c1.9,2.9,3.7,5.8,5.4,8.8c-3.7,0.5-7.5,0.2-11-0.9c-0.9-0.3-1.3,1.2-0.4,1.4
					c3.9,1.2,8.1,1.5,12.2,0.8c0,0,0,0,0,0c2.2,3.9,4.1,8,5.8,12.2c-3.5-1-6.7-2.7-9.4-5.1c-0.7-0.6-1.8,0.4-1.1,1.1
					c3.1,2.8,6.9,4.8,11,5.8c0,0,0.1,0,0.1,0c2.4,6.3,4.1,12.9,5.1,19.6c0.1,0.9,1.6,0.5,1.4-0.4C398.6,586.2,396.8,579.5,394.3,573
					z"/>
			</g>
			<g>
				<path class="st5" d="M415.8,582.1c5.4,5.8,5.6,14,4.7,21.4c-0.2,1.7-0.5,3.3-0.8,5c1,0,1.9,0,2.9,0c0.9-17,2.2-34,1.6-51.1
					c-0.6-16-2.9-32.2-8.8-47.2c-5.2-13.3-13.3-25.4-24.3-34.6c-10.4-8.6-23.1-14.3-36.7-14.7c-12.9-0.4-26.2,3.7-35.9,12.5
					c-1.2,1.1-2.4,2.3-3.4,3.5c-0.5,0.6,0,1.4,0.7,1.2c4.3-0.6,8.9-1.3,13.1,0.2c3.6,1.3,6.2,3.9,6.9,7.7c0.3,1.9,0.4,3.8,1.3,5.5
					c0.6,1.3,1.6,2.5,2.7,3.4c2.4,1.9,5.4,2.8,8.4,3c8,0.5,14.7-4.7,22.2-6.4c6.4-1.4,14.6,0.4,15.7,8c0.6,3.9-0.7,7.9-1.7,11.6
					c-0.9,3.2-1.5,6.6-1.1,9.9c0.4,3.1,1.9,6,4.6,7.6c2.7,1.6,6,1.9,9,2.3c3.1,0.4,6.5,1,8.4,3.7c2,2.8,1.6,6.7,0.6,9.8
					c-2.2,7.1-8.9,13.7-6,21.7C402.8,573.7,410.7,576.7,415.8,582.1z"/>
				<path class="st5" d="M423.3,570.2c0.1-0.2,0.1-0.3,0-0.5c0-0.1-0.1-0.1-0.1-0.2c-0.3-3.8-0.7-7.6-1.4-11.4
					c-1.2-7.3-3-14.6-5.2-21.7c0,0,0,0,0,0c0.9-3.1,1.3-6.3,1.3-9.5c0-1-1.5-1-1.5,0c0,2.3-0.2,4.5-0.7,6.7
					c-1.2-3.8-2.4-7.5-3.8-11.3c0.2,0,0.4-0.1,0.6-0.4c1.4-2.7,2.2-5.6,2.4-8.6c0.1-1-1.4-1-1.5,0c-0.2,2.6-0.9,5.2-2,7.5
					c-0.9-2.6-1.9-5.2-2.8-7.8c0.4,0,0.8-0.2,0.8-0.7c0.3-3.5,0.6-7.1,1-10.6c0.1-1-1.4-1-1.5,0c-0.3,3.2-0.6,6.5-0.9,9.7
					c-1.3-3.2-2.6-6.4-4.1-9.4c0,0,0-0.1,0.1-0.1c1.2-3.4,0.7-7.2-1.1-10.3c-0.5-0.8-1.8-0.1-1.3,0.8c1.4,2.3,1.8,5.1,1.3,7.7
					c-1.7-3.2-3.6-6.4-5.8-9.2c-1.7-2.2-3.6-4.2-5.5-6c0-0.1,0-0.1,0-0.2c-0.4-2.6-1.4-5.2-2.7-7.5c-0.5-0.8-1.8-0.1-1.3,0.8
					c1,1.6,1.7,3.4,2.2,5.2c-4-3.4-8.5-6.2-13.3-8.4c0.5,0,1.1-0.5,0.7-1.1c-1.8-3.3-4.8-5.8-8.3-7.1c-0.4-0.1-0.8,0.2-0.9,0.5
					c-0.1,0.4,0.1,0.8,0.5,0.9c3.1,1.2,5.8,3.5,7.4,6.4c0,0.1,0.1,0.1,0.1,0.1c-1.4-0.6-2.8-1.2-4.2-1.7c-3.1-1.1-6.2-2-9.4-2.6
					c0.2-0.3,0.2-0.8-0.2-1c-5.2-3-10.8-5.3-16.6-7c-0.9-0.3-1.3,1.2-0.4,1.4c5.2,1.5,10.1,3.5,14.9,6.1c-7.8-1.3-15.8-1.3-23.6-0.3
					c-1.5,0.2-3,0.4-4.5,0.7c-0.9,0.2-0.5,1.6,0.4,1.4c8.5-1.6,17.4-1.9,25.9-0.6c-5.8,1.9-11.3,4.9-16,8.8
					c-0.7,0.6,0.3,1.7,1.1,1.1c5.2-4.3,11.3-7.4,17.8-9.1c0.1,0,0.2-0.1,0.3-0.2c2.2,0.4,4.3,0.9,6.5,1.6c2,0.6,3.9,1.3,5.8,2.1
					c-6,3-11.9,6.5-17.4,10.3c-0.8,0.5,0,1.8,0.8,1.3c5.8-4.1,11.9-7.7,18.3-10.8c0.1,0,0.1-0.1,0.1-0.1c5.1,2.3,9.9,5.4,14.1,9.1
					c-3.4,0.7-6.8,1.4-10.2,2c-0.9,0.2-0.5,1.6,0.4,1.4c3.4-0.7,6.8-1.4,10.2-2c0.3-0.1,0.5-0.3,0.5-0.5c1.2,1.1,2.3,2.2,3.3,3.4
					c3.3,3.8,6,8,8.2,12.4c-4.6,0.2-9.1-2.3-11.2-6.3c-0.5-0.8-1.7-0.1-1.3,0.8c2.4,4.6,7.6,7.5,12.8,7.1c0.1,0,0.3-0.1,0.4-0.1
					c1.4,3,2.7,6,3.9,9.1c-6,1.4-12.3,0.5-17.6-2.6c-0.8-0.5-1.6,0.8-0.8,1.3c5.6,3.3,12.5,4.3,18.8,2.7c0,0,0,0,0,0
					c0.7,1.9,1.4,3.8,2.1,5.7c0.3,0.9,0.6,1.7,0.9,2.6c-4.9,1.1-10.1,0.1-14.2-2.9c-0.8-0.6-1.5,0.7-0.8,1.3
					c4.4,3.2,10.1,4.3,15.4,3c1.4,4,2.8,8,4,12.1c-3.1-1.6-5.9-3.6-8.3-6.1c-0.7-0.7-1.7,0.4-1.1,1.1c2.7,2.8,5.9,5.1,9.4,6.7
					c0.2,0.1,0.3,0.1,0.4,0.1c1.1,3.8,2.2,7.6,3.1,11.5c-0.1,0-0.1,0-0.2,0c-3.5,0.1-6.8-2.1-8.3-5.3c-0.2-0.4-0.7-0.5-1-0.3
					c-0.4,0.2-0.4,0.7-0.3,1c1.6,3.7,5.6,6.1,9.6,6c0.2,0,0.3-0.1,0.5-0.2c0.3,1.3,0.6,2.6,0.8,3.8c0.4,2.2,0.8,4.4,1.2,6.7
					c-5.8,0.4-11.6-2.1-15.1-6.8c-0.6-0.8-1.9,0-1.3,0.8c3.8,5.1,10.2,8.1,16.6,7.5c0.3,2.4,0.6,4.7,0.8,7.1
					c-4.1,0.3-8.2-1.8-10.4-5.2c-0.5-0.8-1.8-0.1-1.3,0.8c2.5,4,7.2,6.2,11.8,5.9c0.1,2.1,0.2,4.1,0.2,6.2c-3.1-0.8-5.9-2.4-8.1-4.8
					c-0.7-0.7-1.7,0.4-1.1,1.1c2.4,2.6,5.7,4.5,9.2,5.3c0,3.6-0.2,7.3-0.7,10.9c-0.2,1.5-0.4,3.1-0.7,4.6c-0.2,0.9,1.3,1.3,1.4,0.4
					C423.6,586.3,423.9,578.2,423.3,570.2z"/>
			</g>
			<g>
				<path class="st5" d="M430.9,603.4v-0.8c0.2-2.9,0.3-5.7,0.3-8.6c1.3-13.1,0.5-26.5,3.6-39.4c1.8-7.6,5.2-14.7,10.2-20.8
					c4.9-5.9,11.2-10.6,18-14c8.3-4.2,30.6-10.1,32.7-11.2c0.6-0.4,1.4,0.4,1,1c-8.1,13.8-10,30.4-19,43.8
					c-8.9,13.3-23.1,21.3-34.1,32.6C439.7,590.2,431.6,602.1,430.9,603.4z"/>
				<path class="st5" d="M439.2,572.4c-0.1-0.1-0.2-0.2-0.2-0.4c-1.1-4.4-0.9-9.2,0.6-13.5c0.3-0.9,1.8-0.5,1.4,0.4
					c-1.3,3.6-1.6,7.4-0.9,11.2c1.6-3.9,3.4-7.7,5.4-11.4c0,0,0,0,0-0.1c-1-4.4-0.8-9,0.5-13.3c0.3-0.9,1.7-0.5,1.4,0.4
					c-1.1,3.6-1.4,7.3-0.8,11c1.7-2.9,3.5-5.8,5.4-8.6c-0.1-0.1-0.1-0.2-0.1-0.4c0.1-5,1.1-10,2.9-14.7c0.3-0.9,1.8-0.5,1.4,0.4
					c-1.6,4-2.4,8.2-2.7,12.5c1-1.4,2-2.8,3-4.1c1.2-1.5,2.3-3.1,3.5-4.6c1.1-4.8,3-9.4,5.6-13.6c0.5-0.8,1.8-0.1,1.3,0.8
					c-2,3.1-3.5,6.5-4.6,10c1.9-2.2,3.8-4.3,5.9-6.4c4.7-4.5,10.2-8.4,16.4-10.6c0.9-0.3,1.3,1.1,0.4,1.4
					c-9.5,3.3-16.9,10.6-23.2,18.3c6.2-1.6,12.2-4.3,17.5-7.9c0.8-0.5,1.6,0.8,0.8,1.3c-5.8,3.9-12.3,6.7-19.1,8.3
					c-0.2,0.2-0.5,0.2-0.7,0.2c-0.6,0.7-1.1,1.5-1.7,2.2c-1.6,2.1-3.1,4.2-4.6,6.4c5.7-0.5,11.1-2.5,15.8-5.7
					c0.8-0.5,1.5,0.8,0.8,1.3c-5.2,3.5-11.4,5.6-17.7,6c-1.9,2.9-3.7,5.8-5.4,8.8c3.7,0.5,7.5,0.2,11-0.9c0.9-0.3,1.3,1.2,0.4,1.4
					c-3.9,1.2-8.1,1.5-12.2,0.8c0,0,0,0,0,0c-2.2,3.9-4.1,8-5.8,12.2c3.5-1,6.7-2.7,9.4-5.1c0.7-0.6,1.8,0.4,1.1,1.1
					c-3.1,2.8-6.9,4.8-11,5.8c0,0-0.1,0-0.1,0c-2.4,6.3-4.1,12.9-5.1,19.6c-0.1,0.9-1.6,0.5-1.4-0.4
					C434.8,585.6,436.7,578.9,439.2,572.4z"/>
			</g>
		</g>
		<path class="st6" d="M458,587.9v50.8c0,14.3-8,26.7-19.8,33c4.2,2,7.1,6.2,7.1,11.2v2.8h-49.4v-2.8c0-5,2.9-9.2,7.1-11.2
			c-6-3.2-11.1-8-14.6-13.9c-3.3-5.6-5.3-12.1-5.3-19.1v-50.8H458z"/>
		<path class="st7" d="M445.3,587.9c-2.3,7.4-5.4,14.6-9.1,21.5c-8,14.7-18.9,27.7-32,38.1c-4.9,3.9-10.2,7.4-15.7,10.4
			c3.5,5.9,8.5,10.7,14.6,13.9c-4.2,2-7.1,6.2-7.1,11.2v2.8h49.4v-2.8c0-5-2.9-9.2-7.1-11.2c11.8-6.3,19.8-18.7,19.8-33v-50.8H445.3
			z"/>
	</g>
</g>
<g id="OBJECTS">
	<g>
		<g>
			<g>
				<rect x="542.4" y="543.2" class="st8" width="11.9" height="42.2"/>
				<path class="st9" d="M579.7,538.5h-61.6c-6.3,0-11.5-5.1-11.5-11.5l0,0c0-6.3,5.1-11.5,11.5-11.5h61.6c6.3,0,11.5,5.1,11.5,11.5
					l0,0C591.1,533.4,586,538.5,579.7,538.5z"/>
				<rect x="537.8" y="533.2" class="st9" width="21.8" height="15"/>
				<rect x="537.8" y="578.5" class="st9" width="21.8" height="65.6"/>
				<rect x="485.8" y="636.1" class="st9" width="123.4" height="9.1"/>
				<rect x="485.8" y="636.1" class="st9" width="7.2" height="28.4"/>
				<path class="st9" d="M500.2,664.4c0,6.3-5.1,11.3-11.3,11.3c-6.3,0-11.3-5.1-11.3-11.3s5.1-11.3,11.3-11.3
					C495.1,653.1,500.2,658.2,500.2,664.4z"/>
				<rect x="602" y="636.1" class="st9" width="7.2" height="28.4"/>
				<path class="st9" d="M616.3,664.4c0,6.3-5.1,11.3-11.3,11.3c-6.3,0-11.3-5.1-11.3-11.3s5.1-11.3,11.3-11.3
					C611.2,653.1,616.3,658.2,616.3,664.4z"/>
			</g>
			<g>
				<g>
					<path class="st10" d="M625.2,528.6c-46.7,0-84.7-38-84.7-84.7V340.2c0-5.9,4.8-10.7,10.7-10.7c5.9,0,10.7,4.8,10.7,10.7v103.8
						c0,34.9,28.4,63.3,63.3,63.3c5.9,0,10.7,4.8,10.7,10.7C635.9,523.8,631.1,528.6,625.2,528.6z"/>
					<polygon class="st10" points="551.1,329.5 436.9,329.5 443.9,413.3 440.6,476.3 497.5,512.6 510.9,528.6 625.2,528.6 
						594.1,509 571,482.7 561.7,477.1 554,426.1 553.5,364.9 					"/>
				</g>
				<path class="st11" d="M510.9,528.6c-46.7,0-84.7-38-84.7-84.7V340.2c0-5.9,4.8-10.7,10.7-10.7c5.9,0,10.7,4.8,10.7,10.7v103.8
					c0,34.9,28.4,63.3,63.3,63.3c5.9,0,10.7,4.8,10.7,10.7C521.6,523.8,516.9,528.6,510.9,528.6z"/>
			</g>
		</g>
		<g>
			<g>
				<g>
					<g>
						<polygon class="st12" points="694.7,650.6 693.8,589.3 662.7,587.6 663.6,653.5 693.6,653.7 						"/>
						<g>
							<path class="st13" d="M659.2,640.6c0,0,25.7,10.6,37.8-6.1l53,32.2l-98.8-0.6L659.2,640.6z"/>
							
								<rect x="696" y="621.5" transform="matrix(6.443136e-03 -1 1 6.443136e-03 25.1945 1367.1655)" class="st8" width="9.1" height="98.8"/>
							<path class="st8" d="M696.4,648.6c0.3-0.1,0.5-0.3,0.7-0.5c4-5.3,8.1-7.9,8.1-7.9c0.8-0.5,1-1.5,0.5-2.3
								c-0.5-0.8-1.6-1-2.4-0.5c-0.2,0.1-4.6,2.9-9,8.8c-0.6,0.7-0.4,1.8,0.4,2.3C695.2,648.7,695.8,648.8,696.4,648.6z"/>
							<path class="st8" d="M704.9,652.8c0.3-0.1,0.5-0.3,0.7-0.5c4-5.3,8.1-7.9,8.1-7.9c0.8-0.5,1-1.5,0.5-2.3
								c-0.5-0.8-1.6-1-2.4-0.5c-0.2,0.1-4.6,2.9-9,8.8c-0.6,0.7-0.4,1.8,0.4,2.3C703.7,653,704.3,653,704.9,652.8z"/>
							<path class="st8" d="M713.4,657.1c0.3-0.1,0.5-0.3,0.7-0.5c4-5.3,8.1-7.9,8.1-7.9c0.8-0.5,1-1.5,0.5-2.3
								c-0.5-0.8-1.6-1-2.4-0.5c-0.2,0.1-4.6,2.9-9,8.8c-0.6,0.7-0.4,1.8,0.4,2.3C712.2,657.2,712.9,657.3,713.4,657.1z"/>
						</g>
					</g>
					<g>
						<g>
							<g>
								<path class="st14" d="M581.1,446.8l14.6,12.2c-4.3,26.1-18.3,49.8,8.1,49.8h46.9v107.8l52.6,0.7l2.9-132.1
									c0.4-21-16.5-38.3-37.5-38.3L581.1,446.8z"/>
								
									<rect x="647.4" y="596.9" transform="matrix(-1 -1.224647e-16 1.224647e-16 -1 1355.2577 1214.1722)" class="st15" width="60.5" height="20.4"/>
							</g>
						</g>
					</g>
				</g>
				<g>
					<g>
						<polygon class="st12" points="610.5,650.6 609.5,589.3 578.4,587.6 579.3,653.5 609.3,653.7 						"/>
						<g>
							<path class="st13" d="M574.9,640.6c0,0,25.7,10.6,37.8-6.1l53,32.2L567,666L574.9,640.6z"/>
							
								<rect x="611.8" y="621.5" transform="matrix(6.443115e-03 -1 1 6.443115e-03 -58.5431 1282.8867)" class="st8" width="9.1" height="98.8"/>
							<path class="st8" d="M612.1,648.6c0.3-0.1,0.5-0.3,0.7-0.5c4-5.3,8.1-7.9,8.1-7.9c0.8-0.5,1-1.5,0.5-2.3
								c-0.5-0.8-1.6-1-2.4-0.5c-0.2,0.1-4.6,2.9-9,8.8c-0.6,0.7-0.4,1.8,0.4,2.3C610.9,648.7,611.6,648.8,612.1,648.6z"/>
							<path class="st8" d="M620.6,652.8c0.3-0.1,0.5-0.3,0.7-0.5c4-5.3,8.1-7.9,8.1-7.9c0.8-0.5,1-1.5,0.5-2.3
								c-0.5-0.8-1.6-1-2.4-0.5c-0.2,0.1-4.6,2.9-9,8.8c-0.6,0.7-0.4,1.8,0.4,2.3C619.4,653,620.1,653,620.6,652.8z"/>
							<path class="st8" d="M629.1,657.1c0.3-0.1,0.5-0.3,0.7-0.5c4-5.3,8.1-7.9,8.1-7.9c0.8-0.5,1-1.5,0.5-2.3
								c-0.5-0.8-1.6-1-2.4-0.5c-0.2,0.1-4.6,2.9-9,8.8c-0.6,0.7-0.4,1.8,0.4,2.3C627.9,657.2,628.6,657.3,629.1,657.1z"/>
						</g>
					</g>
					<g>
						<g>
							<g>
								<path class="st15" d="M514.9,446.8l-2,12.2c-4.3,26.1,15.9,49.8,42.3,49.8h12.7v107.8l52.6,0.7l2.9-132.1
									c0.4-21-16.5-38.3-37.5-38.3L514.9,446.8z"/>
								
									<rect x="564.6" y="596.9" transform="matrix(-1 -1.224647e-16 1.224647e-16 -1 1189.6544 1214.1722)" class="st16" width="60.5" height="20.4"/>
							</g>
						</g>
					</g>
				</g>
			</g>
			<g>
				<g>
					<g>
						<polygon class="st17" points="645.8,400.4 716.6,415.3 720.5,429.5 627.6,430.8 620.2,392.3 						"/>
						<path class="st17" d="M705.9,414.5c0,0,14.5-8.8,28.9-5.1c9.5,2.4,18.9,11.5,18.1,21.3l0,0l-57.7-0.7L705.9,414.5z"/>
					</g>
					<g>
						<path class="st17" d="M649.8,349.1l8.2,60.7c0,0-35.4,18.6-34.7,16.4c0.7-2.2-7.9-77.1-7.9-77.1H649.8z"/>
						<path class="st13" d="M618.2,298.9c0,0,26,4.1,31.9,26.3c7.7,28.9,10.7,33.1,10.7,33.1l-39.3,5.7L618.2,298.9z"/>
					</g>
				</g>
				<g>
					<g>
						<path class="st13" d="M568.2,291.5l50,7.4c5.1,0.7,8.8,5.1,8.9,10.2l1.2,118.6L516.7,428l-7.6-103.4l4.1-14
							c1.9-6.6,7.5-11.4,14.2-12.5L568.2,291.5z"/>
					</g>
				</g>
				<g>
					<g>
						<polygon class="st12" points="535.4,357.9 514.6,411.9 482.3,383.8 494.8,345 						"/>
						<path class="st13" d="M555.8,295.7c0,0-38.8-0.3-48.5,11.1c-12.2,14.4-26.6,51.3-26.6,51.3l63.1,13.9L555.8,295.7z"/>
					</g>
					<g>
						<g>
							<path class="st12" d="M518.2,402.9l72.8,16.2l-3,16.1l-86.1,0.6c0,0-38.5-7.8-19.6-52L518.2,402.9z"/>
							<path class="st12" d="M591,419.1c0,0,17.1-6.7,31.3-4.1c9.6,1.8,16.1,11,15.4,20.7l0,0l-57.2-0.5L591,419.1z"/>
						</g>
						<line class="st18" x1="518.2" y1="402.9" x2="500.2" y2="400.4"/>
					</g>
				</g>
			</g>
			<g>
				<path class="st13" d="M601.6,203.3c0,0,19.8,18.6,0.3,25.4L601.6,203.3z"/>
				<path class="st19" d="M589.7,236.4c-0.2,7.6,5.6,13.9,12.9,14.1c7.3,0.2,13.4-5.7,13.6-13.3c0.2-7.6-5.6-13.9-12.9-14.1
					C596,222.9,589.9,228.9,589.7,236.4z"/>
				<path class="st12" d="M586.1,265.6l1,26.4c0.4,9.3-4.9,14.4-13.8,14.7l0,0c-7.6,0.2-16-3.1-16-11.3l0.3-41.6L586.1,265.6z"/>
				<path class="st13" d="M586.9,283.2c0,0-21.4,2.7-29.1-21.3c-2.4-7.5,28.3,1,28.3,1L586.9,283.2z"/>
				<path class="st12" d="M578.5,273.6L578.5,273.6c15.1-0.6,27-13.3,27-26.1l-0.3-26.6c-0.1-16-12.4-29-27.9-29.5l0,0
					c-15.8-0.5-31.8,12.2-32.2,28.6l0.5,20.8C546,259.5,560.4,273.1,578.5,273.6z"/>
				<g>
					<polyline class="st20" points="589.6,240.4 590.4,245.5 586.6,245.8 					"/>
					<path class="st13" d="M572.9,224.8c0,0,6.2-0.8,6.3,1.8c0,0,0.1,1.8-5.3,2.3c-5.4,0.6-6.8,0.2-7.4-1.4S570,224.9,572.9,224.8z"
						/>
					<path class="st13" d="M597.8,223.9c0,0-5.1-0.3-5.4,2.1c0,0-0.2,1.7,4.3,1.9c4.5,0.2,5.9-0.5,6.3-1.8
						C603.4,224.6,600.2,223.9,597.8,223.9z"/>
					<path class="st13" d="M594.6,234.9c0,1.5,1.2,2.7,2.6,2.7c1.4,0,2.6-1.2,2.6-2.7c0-1.5-1.2-2.7-2.6-2.7
						C595.8,232.2,594.6,233.4,594.6,234.9z"/>
					<path class="st13" d="M571.9,235c0,1.5,1.2,2.7,2.6,2.7c1.4,0,2.6-1.2,2.6-2.7c0-1.5-1.2-2.7-2.6-2.7
						C573,232.4,571.9,233.6,571.9,235z"/>
					<line class="st20" x1="583.8" y1="254.8" x2="590.8" y2="253.8"/>
				</g>
				<path class="st13" d="M621.1,194.3l-11.4-1.6c3.3-2.1,6.7-4.2,6.7-4.2s-7.8-2.7-18.2-2.7c-6.8-3.7-15.5-6.2-24.5-6.3
					c-13.3-0.2-24.6,7-28.7,15l0,0c0,0-11-0.7-12.5,11.8c-2,16.2,17.5,42.9,17.5,42.9L552,228c12.1-0.9,12.6-11.5,11.7-18.5
					c5.4,0.5,24.2,1.7,38.8-1.6c1.6-0.2,3.8-0.6,5.6-1.5C615,204.1,620.2,200.3,621.1,194.3z"/>
				<g>
					<path class="st21" d="M531.7,240.8c-0.2,6,4.5,11.1,10.3,11.3c5.9,0.2,10.7-4.6,10.9-10.6c0.2-6-4.5-11.1-10.3-11.3
						C536.8,230,531.9,234.8,531.7,240.8z"/>
					<path class="st22" d="M545.9,243.9c0,0,0.2-7.9-7.2-6.9"/>
				</g>
				<g>
					<path class="st19" d="M583.5,179.1l0.3,1.5c0,0-19.2,2-27.9,13.7c-9.7,13-9.9,30.5-9.9,30.5l-4.1,0.4l0.3-27.8l8.3-8.7
						l13.2-7.9l9.3-3L583.5,179.1z"/>
					<g>
						<path class="st19" d="M557.6,234.9c2,9.1-3.9,18.1-15.5,20.7c-8.2,1.8-12.2-5.1-14.2-14.2c-2-9.1,3.1-18,11.2-19.7
							C547.4,219.8,555.6,225.8,557.6,234.9z"/>
						<path class="st15" d="M553.3,235.8c2,9.1-3.1,18-11.2,19.7c-8.2,1.8-16.4-4.2-18.4-13.3c-2-9.1,3.1-18,11.2-19.7
							C543.1,220.7,551.4,226.7,553.3,235.8z"/>
					</g>
					<path class="st15" d="M536,224.4c0,0-1.6-10.1,0.8-21.2c3.1-14,14.3-24,28.4-26.6c1.1-0.2,2.2-0.4,3.4-0.5
						c4.1-0.5,8.6-0.4,12.3,1.4c0.9,0.5,1.9,1,2.6,1.6c0,0-18.6,0.8-27.6,10.7c-10.1,11.2-12.7,26.3-12.1,36.3L536,224.4z"/>
				</g>
				<path class="st12" d="M547.2,294.9l21-3.4l27.9,4.1c0,0,1.7,16.3-21.9,17S547.2,294.9,547.2,294.9z"/>
			</g>
		</g>
	</g>
	<g>
		<g>
			<polygon class="st23" points="674.1,375.8 684,382.9 754.4,323.5 925.7,228.9 916.4,222.2 798.9,258.3 			"/>
			<path class="st23" d="M698.4,227.7l-27.9,138.6c-1.2,5.9,3.3,11.5,9.4,11.5h200.7c4.5,0,8.4-3.2,9.4-7.6l29.7-138.6
				c1.3-6-3.3-11.6-9.4-11.6H707.8C703.2,220,699.3,223.2,698.4,227.7z"/>
			<path class="st24" d="M707.4,234.2l-27.9,138.6c-1.2,5.9,3.3,11.5,9.4,11.5h200.7c4.5,0,8.4-3.2,9.4-7.6l29.7-138.6
				c1.3-6-3.3-11.6-9.4-11.6H716.8C712.3,226.6,708.3,229.8,707.4,234.2z"/>
			<polygon class="st23" points="780.5,347.6 776.8,384.3 793.1,384.3 			"/>
			<polygon class="st25" points="780.5,346.9 797.2,428.9 857.8,428.9 829.3,346.9 			"/>
			<circle class="st8" cx="812.3" cy="283.8" r="13.4"/>
			<path class="st24" d="M893.6,421.3H750.7c-2.2,0-4,1.8-4,4l0,0c0,2.2,1.8,4,4,4h142.9c2.2,0,4-1.8,4-4l0,0
				C897.6,423,895.8,421.3,893.6,421.3z"/>
			<path class="st24" d="M715.5,421.3h-75.7c-2.2,0-4,1.8-4,4l0,0c0,2.2,1.8,4,4,4h75.7c2.2,0,4-1.8,4-4l0,0
				C719.5,423,717.7,421.3,715.5,421.3z"/>
		</g>
	</g>
	<line class="st26" x1="622" y1="441.8" x2="622" y2="675.8"/>
	<line class="st26" x1="473.7" y1="441.8" x2="473.7" y2="675.8"/>
	<line class="st26" x1="981.9" y1="441.8" x2="981.9" y2="675.8"/>
	<line class="st26" x1="833.6" y1="441.8" x2="833.6" y2="675.8"/>
	<rect x="439.2" y="428.9" class="st24" width="140.3" height="18.8"/>
	<rect x="579.3" y="428.9" class="st8" width="440.7" height="18.8"/>
</g>
<g id="DESIGNED_BY_FREEPIK">
	<g>
		<g>
			<path class="st27" d="M933.2,660.1c1.8,1.6,5.4,1.9,7.8,2.6c4.3,1.1,8.7,2.2,13.2,2.3c9,0.2,18.7-3.3,24.5-10.6
				c4.6-5.8,7.7-17.2,7.6-24.4c-0.1-5.1-1.3-9.4-2.8-14.2c1.5,1.3,3.3,2.7,4.6,4.4c0.5-6.4-2.8-14.8-5.8-20.3
				c-2.4-4.3-6.7-7.9-8.5-12.4c3.6,0.7,7.9,2,11.2,3.4c-0.1-6.8-9.1-11.2-10.7-17.6c14.7,0.3,28.9,9.3,39.1,19.3
				c7.3,7.1,13.9,14,17,24c2.8,9,3.2,18.8,1.2,28c-7.2,32.9-49.5,52.7-78.6,35.6c-2.8-1.7-22.3-17.6-20.1-19.4L933.2,660.1z"/>
		</g>
		<g>
			<path class="st8" d="M854.8,468.5c1.8,11.1,8.5,16.5,16.3,18.9c5.3,1.6,11.1,1.8,16.4,1.5c0,0,0,0,0,0c0-0.3,0.3-0.6,0.6-0.6
				c4.6,0.1,9.1-2.3,13.6-7.5c0.2-0.3,0.6-0.3,0.9-0.1c0.2,0.2,0.3,0.7,0,1c-2.7,3-5.4,5.2-8.1,6.5c-2.1,1-4.3,1.5-6.4,1.4
				c-0.1,0-0.1,0-0.2,0l-5.5,15.7l-8.9,25.4l-0.7,2.7c-0.5,1.8-0.9,3.7-1.3,5.5c-0.1,0.7-0.2,1.3-0.4,2
				c-5.2,28.5,2.5,58.2,22.4,79.5c1,1.1,2,2.1,3.1,3.2l2.5,2.5l11.1,12.4l13.7,15.2l55.5,29.4c4.1-40.1-0.1-76.9-17.3-108.4
				c0,0,0,0,0,0c-0.2-0.4-0.4-0.8-0.7-1.3c-4.1-7.4-9-14.5-14.7-21.3c-7.2-8.6-11.7-19-13.5-30.1c-0.3-2.2-0.7-4.6-1.2-7l-3.5-37
				c0.1-0.2,0.2-0.3,0.4-0.5c0.8-0.1,1.6-0.2,2.4-0.2c11.8-0.6,12.6-17.5,0.8-18.6c-0.4,0-0.8-0.1-1.1-0.1c-4.3-0.3-7,0.1-7,0.1
				c-3-1.6-6.3-2.4-9.7-2.4c-1.3,0-2.7,0.1-4,0.3c-1.9,0.3-3.9,1-5.7,1.8l-1.4,0.6c-1.8,0.9-3.6,2-5.1,3.3c-1.8,1.6-4.6,1.7-6.7,0.5
				c-3.8-2.3-7.5-4.8-10.5-7c-4.9-3.7-8.2-6.6-8.2-6.6c-0.5-0.3-1-0.7-1.5-1c-1.9,4.3-6.8,11.9-16,2.4c0.1-0.2,0.1-0.4,0.2-0.6
				c0,0.2-0.1,0.4-0.2,0.6C853.1,457.8,854.8,468.5,854.8,468.5z M901.1,469.6c0.4-1.3,1.9-1.9,3.2-1.5c1.3,0.5,1.9,1.9,1.5,3.2
				c-0.5,1.3-1.9,1.9-3.2,1.5C901.3,472.3,900.6,470.9,901.1,469.6z"/>
			<g>
				<path class="st27" d="M893.6,620.4c1,1.1,2,2.1,3.1,3.2l2.5,2.5l11.1,12.4c1-2.4,1.5-5.1,1.6-7c0.2-2.7,0.2-5.9-0.3-8.5
					c-0.6-2.9-3.1-5.5-3-8.2c1.6,1.1,3.1,2.3,4.6,3.5c-1.8-8.1-2.8-17.9-7-25.2c-1.8-3-10.6-12.9-9.1-15.8c2.5,0.9,5.2,3.6,7.8,3
					c0.4-3.9-2.8-8.5-4.4-11.9c-2.7-5.8-6.1-10.2-10-15.2c-5.1-6.6-11-11-19.3-12.4l0,0C866,569.4,873.7,599.1,893.6,620.4z"/>
			</g>
			<path class="st8" d="M884.5,686.4h94.1c0.1-0.3,0.2-0.6,0.3-0.8c10.7-32.9-18.4-65-52.3-58.1l-3.4,0.7c-5,1-9.8,2.8-14.1,5.4
				c-27.3,16.6-5.4,37.4-5.4,37.4C882.8,671,884.5,686.4,884.5,686.4z"/>
			<path class="st28" d="M902.6,472.8c1.3,0.5,2.7-0.2,3.2-1.5c0.5-1.3-0.2-2.7-1.5-3.2c-1.3-0.5-2.7,0.2-3.2,1.5
				C900.6,470.9,901.3,472.3,902.6,472.8z"/>
			<path class="st28" d="M887.5,489c0.2,0,0.4,0,0.6,0l-0.2,0.6c0.1,0.1,0.1,0.1,0.2,0.1c2.2,0.1,4.3-0.4,6.4-1.4
				c2.7-1.3,5.4-3.5,8.1-6.5c0.2-0.3,0.2-0.7-0.1-0.9c-0.3-0.2-0.7-0.2-0.9,0.1c-4.6,5.2-9,7.6-13.6,7.5
				C887.8,488.3,887.5,488.6,887.5,489C887.5,489,887.5,489,887.5,489z"/>
			<path class="st6" d="M855.5,450.9c9.2,9.5,14.1,2,16-2.4c-6.8-4.3-11-4.1-13.5-1.8c-0.1,0.1-0.3,0.3-0.4,0.4
				c-0.2,0.2-0.4,0.5-0.6,0.7c-0.5,0.7-0.9,1.6-1.3,2.4C855.6,450.5,855.5,450.7,855.5,450.9z"/>
			<path class="st27" d="M902.6,472.8c1.3,0.5,2.7-0.2,3.2-1.5c0.5-1.3-0.2-2.7-1.5-3.2c-1.3-0.5-2.7,0.2-3.2,1.5
				C900.6,470.9,901.3,472.3,902.6,472.8z"/>
			<path class="st27" d="M855.5,450.9c9.2,9.5,14.1,2,16-2.4c-6.8-4.3-11-4.1-13.5-1.8c-0.1,0.1-0.3,0.3-0.4,0.4
				c-0.2,0.2-0.4,0.5-0.6,0.7c-0.5,0.7-0.9,1.6-1.3,2.4C855.6,450.5,855.5,450.7,855.5,450.9z"/>
			<g>
				<path class="st27" d="M887.5,488.9C887.5,489,887.5,489,887.5,488.9c0,0.3,0.2,0.6,0.4,0.6c0.1,0.1,0.1,0.1,0.2,0.1
					c2.2,0.1,4.3-0.4,6.4-1.4c2.7-1.3,5.4-3.5,8.1-6.5c0.2-0.3,0.2-0.7-0.1-0.9c-0.3-0.2-0.7-0.2-0.9,0.1c-4.6,5.2-9,7.6-13.6,7.5
					C887.8,488.3,887.5,488.6,887.5,488.9z"/>
			</g>
			<path class="st8" d="M856.7,686.4h26.1l20.1-60.3l12.3-36.9c5.9-18.4,2.4-30.2-3.1-37.5c-0.6-0.8-1.3-1.6-2-2.3
				c-2.9-2.7-6.7-4.3-10.6-4.6l0,0c-0.5,0-1-0.1-1.5-0.1c-4,0-8.1,1.3-11.5,4c-4.1,3.2-6.6,7.9-7,13.1L877,597l-5.5,74
				C855.2,673.1,856.7,686.4,856.7,686.4z"/>
			<g>
				<path class="st27" d="M924.4,463.1c1-2.3,5.4-2.9,7.8-2.5c3.4,0.7,5.9,4.7,7.1,7.9c2.7,7.2,2,15.4,2,23c0,9.3-0.3,18.7,0.5,27.9
					c0.6,7,1.8,17.7-8.3,17c-7.7-0.6-12.4-11.3-14.3-17.8c-3.6-11.9-4.4-23.4-5-35.7c-0.4-7.8-1.5-16.2,1.9-23.6
					c3.4-7.2,13.2-7.6,19.5-3.5c17.9,11.7,5.3,44.7,5.3,61.3"/>
			</g>
		</g>
		<g>
			<path class="st27" d="M968.5,638.1c-12.3-11.9-30.6-16.3-46.9-11c-4.6,1.5-9,3.7-13,6.5c-0.8,0.6,0,2,0.8,1.4
				c13.6-9.7,31.9-11.2,46.8-3.7c4.1,2.1,7.9,4.7,11.2,7.9C968.2,640,969.3,638.8,968.5,638.1z"/>
			<path class="st27" d="M926.8,673.2c-7.2-3.6-15.6-4.6-23.5-2.5c-1,0.3-0.6,1.8,0.4,1.5c7.4-1.9,15.4-1.1,22.2,2.4
				C926.9,675,927.7,673.6,926.8,673.2z"/>
			<path class="st27" d="M879.2,672.7c-2.3-1.8-5.4-2.4-8.1-1.5c-1,0.3-0.6,1.8,0.4,1.5c2.2-0.7,4.8-0.3,6.6,1.1
				c0.3,0.3,0.8,0.3,1.1,0C879.4,673.6,879.5,673,879.2,672.7z"/>
		</g>
	</g>
</g>
</svg>
