<?xml version="1.0" encoding="utf-8"?>
<!-- Generator: Adobe Illustrator 24.2.3, SVG Export Plug-In . SVG Version: 6.00 Build 0)  -->
<svg version="1.1" xmlns="http://www.w3.org/2000/svg" xmlns:xlink="http://www.w3.org/1999/xlink" x="0px" y="0px"
	 viewBox="0 0 885.4 613.8" style="enable-background:new 0 0 885.4 613.8;" xml:space="preserve">
<style type="text/css">
	.st0{fill:#FFFFFF;}
	.st1{fill:#1C2E34;}
	.st2{fill:#FF6E65;}
	.st3{fill:#FF9184;}
	.st4{fill:#FFB0A0;}
	.st5{fill:#0B181B;}
	.st6{fill:#007BDE;}
	.st7{fill:#0086FF;}
	.st8{fill:#00B1FF;}
	.st9{fill:#F9A498;}
	.st10{fill:none;stroke:#E98980;stroke-width:0.5;stroke-miterlimit:10;}
	.st11{fill:#0077C9;}
	.st12{fill:none;stroke:#0B181B;stroke-width:0.5266;stroke-linecap:round;stroke-linejoin:round;stroke-miterlimit:10;}
	.st13{fill:#FFBA99;}
	.st14{fill:none;stroke:#312220;stroke-width:0.5575;stroke-linecap:round;stroke-linejoin:round;stroke-miterlimit:10;}
	.st15{fill:#CB9DA8;}
	.st16{fill:#EAC8CE;}
	.st17{fill:#F6DAE0;}
	.st18{fill:none;stroke:#55382E;stroke-width:1.1607;stroke-miterlimit:10;}
</style>
<g id="BACKGROUND">
</g>
<g id="OBJECTS">
	<g>
		<g>
			<g>
				<g>
					<rect x="265" y="413.7" class="st0" width="11.9" height="42.2"/>
					<path class="st1" d="M302.2,409h-61.6c-6.3,0-11.5-5.1-11.5-11.5l0,0c0-6.3,5.1-11.5,11.5-11.5h61.6c6.3,0,11.5,5.1,11.5,11.5
						l0,0C313.7,403.9,308.6,409,302.2,409z"/>
					<rect x="260.4" y="403.6" class="st1" width="21.8" height="15"/>
					<rect x="260.4" y="449" class="st1" width="21.8" height="65.6"/>
					<rect x="208.4" y="506.5" class="st1" width="123.4" height="9.1"/>
					<rect x="208.4" y="506.5" class="st1" width="7.2" height="28.4"/>
					<path class="st1" d="M222.7,534.9c0,6.3-5.1,11.3-11.3,11.3c-6.3,0-11.3-5.1-11.3-11.3s5.1-11.3,11.3-11.3
						C217.7,523.6,222.7,528.6,222.7,534.9z"/>
					<rect x="324.5" y="506.5" class="st1" width="7.2" height="28.4"/>
					<path class="st1" d="M338.9,534.9c0,6.3-5.1,11.3-11.3,11.3c-6.3,0-11.3-5.1-11.3-11.3s5.1-11.3,11.3-11.3
						C333.8,523.6,338.9,528.6,338.9,534.9z"/>
				</g>
				<g>
					<g>
						<path class="st2" d="M347.7,399.1c-46.7,0-84.7-38-84.7-84.7V210.6c0-5.9,4.8-10.7,10.7-10.7c5.9,0,10.7,4.8,10.7,10.7v103.8
							c0,34.9,28.4,63.3,63.3,63.3c5.9,0,10.7,4.8,10.7,10.7C358.4,394.3,353.6,399.1,347.7,399.1z"/>
						<polygon class="st2" points="273.7,199.9 159.5,199.9 166.5,283.7 163.1,346.8 220.1,383 233.5,399.1 347.7,399.1 
							316.7,379.4 293.5,353.2 284.3,347.5 276.6,296.6 276,235.4 						"/>
					</g>
					<path class="st3" d="M233.5,399.1c-46.7,0-84.7-38-84.7-84.7V210.6c0-5.9,4.8-10.7,10.7-10.7c5.9,0,10.7,4.8,10.7,10.7v103.8
						c0,34.9,28.4,63.3,63.3,63.3c5.9,0,10.7,4.8,10.7,10.7C244.2,394.3,239.4,399.1,233.5,399.1z"/>
				</g>
			</g>
			<g>
				<g>
					<g>
						<g>
							<polygon class="st4" points="417.3,521.1 416.4,459.7 385.3,458.1 386.1,523.9 416.1,524.1 							"/>
							<g>
								<path class="st5" d="M381.8,511.1c0,0,25.7,10.6,37.8-6.1l53,32.2l-98.8-0.6L381.8,511.1z"/>
								
									<rect x="418.6" y="492" transform="matrix(6.443136e-03 -1 1 6.443136e-03 -120.9272 961.0497)" class="st0" width="9.1" height="98.8"/>
								<path class="st0" d="M419,519c0.3-0.1,0.5-0.3,0.7-0.5c4-5.3,8.1-7.9,8.1-7.9c0.8-0.5,1-1.5,0.5-2.3c-0.5-0.8-1.6-1-2.4-0.5
									c-0.2,0.1-4.6,2.9-9,8.8c-0.6,0.7-0.4,1.8,0.4,2.3C417.8,519.2,418.4,519.3,419,519z"/>
								<path class="st0" d="M427.5,523.3c0.3-0.1,0.5-0.3,0.7-0.5c4-5.3,8.1-7.9,8.1-7.9c0.8-0.5,1-1.5,0.5-2.3
									c-0.5-0.8-1.6-1-2.4-0.5c-0.2,0.1-4.6,2.9-9,8.8c-0.6,0.7-0.4,1.8,0.4,2.3C426.3,523.5,426.9,523.5,427.5,523.3z"/>
								<path class="st0" d="M436,527.5c0.3-0.1,0.5-0.3,0.7-0.5c4-5.3,8.1-7.9,8.1-7.9c0.8-0.5,1-1.5,0.5-2.3
									c-0.5-0.8-1.6-1-2.4-0.5c-0.2,0.1-4.6,2.9-9,8.8c-0.6,0.7-0.4,1.8,0.4,2.3C434.8,527.7,435.4,527.8,436,527.5z"/>
							</g>
						</g>
						<g>
							<g>
								<g>
									<path class="st6" d="M303.7,317.2l14.6,12.2c-4.3,26.1-18.3,49.8,8.1,49.8h46.9v107.8l52.6,0.7l2.9-132.1
										c0.4-21-16.5-38.3-37.5-38.3L303.7,317.2z"/>
									
										<rect x="369.9" y="467.4" transform="matrix(-1 -1.224647e-16 1.224647e-16 -1 800.3951 955.1227)" class="st7" width="60.5" height="20.4"/>
								</g>
							</g>
						</g>
					</g>
					<g>
						<g>
							<polygon class="st4" points="333,521.1 332.1,459.7 301,458.1 301.8,523.9 331.9,524.1 							"/>
							<g>
								<path class="st5" d="M297.5,511.1c0,0,25.7,10.6,37.8-6.1l53,32.2l-98.8-0.6L297.5,511.1z"/>
								
									<rect x="334.3" y="492" transform="matrix(6.443115e-03 -1 1 6.443115e-03 -204.6648 876.771)" class="st0" width="9.1" height="98.8"/>
								<path class="st0" d="M334.7,519c0.3-0.1,0.5-0.3,0.7-0.5c4-5.3,8.1-7.9,8.1-7.9c0.8-0.5,1-1.5,0.5-2.3
									c-0.5-0.8-1.6-1-2.4-0.5c-0.2,0.1-4.6,2.9-9,8.8c-0.6,0.7-0.4,1.8,0.4,2.3C333.5,519.2,334.1,519.3,334.7,519z"/>
								<path class="st0" d="M343.2,523.3c0.3-0.1,0.5-0.3,0.7-0.5c4-5.3,8.1-7.9,8.1-7.9c0.8-0.5,1-1.5,0.5-2.3
									c-0.5-0.8-1.6-1-2.4-0.5c-0.2,0.1-4.6,2.9-9,8.8c-0.6,0.7-0.4,1.8,0.4,2.3C342,523.5,342.6,523.5,343.2,523.3z"/>
								<path class="st0" d="M351.7,527.5c0.3-0.1,0.5-0.3,0.7-0.5c4-5.3,8.1-7.9,8.1-7.9c0.8-0.5,1-1.5,0.5-2.3
									c-0.5-0.8-1.6-1-2.4-0.5c-0.2,0.1-4.6,2.9-9,8.8c-0.6,0.7-0.4,1.8,0.4,2.3C350.5,527.7,351.1,527.8,351.7,527.5z"/>
							</g>
						</g>
						<g>
							<g>
								<g>
									<path class="st7" d="M237.5,317.2l-2,12.2c-4.3,26.1,15.9,49.8,42.3,49.8h12.7v107.8l52.6,0.7l2.9-132.1
										c0.4-21-16.5-38.3-37.5-38.3L237.5,317.2z"/>
									
										<rect x="287.1" y="467.4" transform="matrix(-1 -1.224647e-16 1.224647e-16 -1 634.7918 955.1227)" class="st8" width="60.5" height="20.4"/>
								</g>
							</g>
						</g>
					</g>
				</g>
				<g>
					<g>
						<g>
							<polygon class="st9" points="368.3,270.8 439.2,285.8 443,300 350.2,301.3 342.8,262.8 							"/>
							<path class="st9" d="M428.4,284.9c0,0,14.5-8.8,28.9-5.1c9.5,2.4,18.9,11.5,18.1,21.3l0,0l-57.7-0.7L428.4,284.9z"/>
						</g>
						<g>
							<path class="st9" d="M372.4,219.6l8.2,60.7c0,0-35.4,18.6-34.7,16.4c0.7-2.2-7.9-77.1-7.9-77.1H372.4z"/>
							<path class="st5" d="M340.7,169.4c0,0,26,4.1,31.9,26.3c7.7,28.9,10.7,33.1,10.7,33.1l-39.3,5.7L340.7,169.4z"/>
						</g>
					</g>
					<g>
						<g>
							<path class="st5" d="M290.7,162l50,7.4c5.1,0.7,8.8,5.1,8.9,10.2l1.2,118.6l-111.5,0.3l-7.6-103.4l4.1-14
								c1.9-6.6,7.5-11.4,14.2-12.5L290.7,162z"/>
						</g>
					</g>
					<g>
						<g>
							<polygon class="st4" points="258,228.4 237.1,282.3 204.9,254.3 217.4,215.5 							"/>
							<path class="st5" d="M278.3,166.2c0,0-38.8-0.3-48.5,11.1c-12.2,14.4-26.6,51.3-26.6,51.3l63.1,13.9L278.3,166.2z"/>
						</g>
						<g>
							<g>
								<path class="st4" d="M240.7,273.3l72.8,16.2l-3,16.1l-86.1,0.6c0,0-38.5-7.8-19.6-52L240.7,273.3z"/>
								<path class="st4" d="M313.6,289.6c0,0,17.1-6.7,31.3-4.1c9.6,1.8,16.1,11,15.4,20.7l0,0l-57.2-0.5L313.6,289.6z"/>
							</g>
							<line class="st10" x1="240.7" y1="273.3" x2="222.7" y2="270.8"/>
						</g>
					</g>
				</g>
				<g>
					<path class="st5" d="M324.1,73.7c0,0,19.8,18.6,0.3,25.4L324.1,73.7z"/>
					<path class="st11" d="M312.3,106.9c-0.2,7.6,5.6,13.9,12.9,14.1c7.3,0.2,13.4-5.7,13.6-13.3c0.2-7.6-5.6-13.9-12.9-14.1
						C318.6,93.4,312.5,99.4,312.3,106.9z"/>
					<path class="st4" d="M308.7,136.1l1,26.4c0.4,9.3-4.9,14.4-13.8,14.7l0,0c-7.6,0.2-16-3.1-16-11.3l0.3-41.6L308.7,136.1z"/>
					<path class="st5" d="M309.5,153.7c0,0-21.4,2.7-29.1-21.3c-2.4-7.5,28.3,1,28.3,1L309.5,153.7z"/>
					<path class="st4" d="M301.1,144.1L301.1,144.1c15.1-0.6,27-13.3,27-26.1l-0.3-26.6c-0.1-16-12.4-29-27.9-29.5l0,0
						c-15.8-0.5-31.8,12.2-32.2,28.6l0.5,20.8C268.6,129.9,283,143.5,301.1,144.1z"/>
					<g>
						<polyline class="st12" points="312.2,110.8 312.9,116 309.2,116.3 						"/>
						<path class="st5" d="M295.5,95.3c0,0,6.2-0.8,6.3,1.8c0,0,0.1,1.8-5.3,2.3c-5.4,0.6-6.8,0.2-7.4-1.4
							C288.6,96.4,292.6,95.4,295.5,95.3z"/>
						<path class="st5" d="M320.4,94.4c0,0-5.1-0.3-5.4,2.1c0,0-0.2,1.7,4.3,1.9c4.5,0.2,5.9-0.5,6.3-1.8
							C325.9,95.1,322.8,94.4,320.4,94.4z"/>
						<path class="st5" d="M317.2,105.4c0,1.5,1.2,2.7,2.6,2.7c1.4,0,2.6-1.2,2.6-2.7c0-1.5-1.2-2.7-2.6-2.7
							C318.3,102.7,317.2,103.9,317.2,105.4z"/>
						<path class="st5" d="M294.4,105.5c0,1.5,1.2,2.7,2.6,2.7c1.4,0,2.6-1.2,2.6-2.7c0-1.5-1.2-2.7-2.6-2.7
							C295.6,102.8,294.4,104,294.4,105.5z"/>
						<line class="st12" x1="306.4" y1="125.3" x2="313.3" y2="124.3"/>
					</g>
					<path class="st5" d="M343.6,64.8l-11.4-1.6c3.3-2.1,6.7-4.2,6.7-4.2s-7.8-2.7-18.2-2.7c-6.8-3.7-15.5-6.2-24.5-6.3
						c-13.3-0.2-24.6,7-28.7,15l0,0c0,0-11-0.7-12.5,11.8c-2,16.2,17.5,42.9,17.5,42.9l2.2-21.1c12.1-0.9,12.6-11.5,11.7-18.5
						c5.4,0.5,24.2,1.7,38.8-1.6c1.6-0.2,3.8-0.6,5.6-1.5C337.6,74.6,342.7,70.8,343.6,64.8z"/>
					<g>
						<path class="st13" d="M254.3,111.3c-0.2,6,4.5,11.1,10.3,11.3c5.9,0.2,10.7-4.6,10.9-10.6c0.2-6-4.5-11.1-10.3-11.3
							C259.4,100.5,254.5,105.2,254.3,111.3z"/>
						<path class="st14" d="M268.5,114.4c0,0,0.2-7.9-7.2-6.9"/>
					</g>
					<g>
						<path class="st11" d="M306.1,49.6l0.3,1.5c0,0-19.2,2-27.9,13.7c-9.7,13-9.9,30.5-9.9,30.5l-4.1,0.4l0.3-27.8l8.3-8.7
							l13.2-7.9l9.3-3L306.1,49.6z"/>
						<g>
							<path class="st11" d="M280.2,105.4c2,9.1-3.9,18.1-15.5,20.7c-8.2,1.8-12.2-5.1-14.2-14.2c-2-9.1,3.1-18,11.2-19.7
								C269.9,90.3,278.2,96.2,280.2,105.4z"/>
							<path class="st7" d="M275.9,106.3c2,9.1-3.1,18-11.2,19.7c-8.2,1.8-16.4-4.2-18.4-13.3c-2-9.1,3.1-18,11.2-19.7
								S273.9,97.2,275.9,106.3z"/>
						</g>
						<path class="st7" d="M258.5,94.9c0,0-1.6-10.1,0.8-21.2c3.1-14,14.3-24,28.4-26.6c1.1-0.2,2.2-0.4,3.4-0.5
							c4.1-0.5,8.6-0.4,12.3,1.4c0.9,0.5,1.9,1,2.6,1.6c0,0-18.6,0.8-27.6,10.7c-10.1,11.2-12.7,26.3-12.1,36.3L258.5,94.9z"/>
					</g>
					<path class="st4" d="M269.7,165.4l21-3.4l27.9,4.1c0,0,1.7,16.3-21.9,17C273.2,183.8,269.7,165.4,269.7,165.4z"/>
				</g>
			</g>
		</g>
		<g>
			<g>
				<g>
					<g>
						<polygon class="st15" points="396.7,246.2 406.6,253.4 476.9,194 648.2,99.4 639,92.7 521.5,128.8 						"/>
						<path class="st15" d="M421,98.2l-27.9,138.6c-1.2,5.9,3.3,11.5,9.4,11.5h200.7c4.5,0,8.4-3.2,9.4-7.6l29.7-138.6
							c1.3-6-3.3-11.6-9.4-11.6H430.4C425.8,90.5,421.9,93.7,421,98.2z"/>
						<path class="st16" d="M430,104.7l-27.9,138.6c-1.2,5.9,3.3,11.5,9.4,11.5h200.7c4.5,0,8.4-3.2,9.4-7.6l29.7-138.6
							c1.3-6-3.3-11.6-9.4-11.6H439.4C434.8,97,430.9,100.2,430,104.7z"/>
						<polygon class="st15" points="503.1,218.1 499.3,254.7 515.6,254.7 						"/>
						<polygon class="st17" points="503.1,217.3 519.7,299.4 580.3,299.4 551.9,217.3 						"/>
						<circle class="st0" cx="534.9" cy="154.2" r="13.4"/>
						<path class="st16" d="M616.2,291.7H473.3c-2.2,0-4,1.8-4,4l0,0c0,2.2,1.8,4,4,4h142.9c2.2,0,4-1.8,4-4l0,0
							C620.1,293.5,618.4,291.7,616.2,291.7z"/>
						<path class="st16" d="M438.1,291.7h-75.7c-2.2,0-4,1.8-4,4l0,0c0,2.2,1.8,4,4,4h75.7c2.2,0,4-1.8,4-4l0,0
							C442,293.5,440.3,291.7,438.1,291.7z"/>
					</g>
				</g>
				<g>
					<line class="st18" x1="344.6" y1="312.3" x2="344.6" y2="546.2"/>
					<line class="st18" x1="196.3" y1="312.3" x2="196.3" y2="546.2"/>
					<line class="st18" x1="704.4" y1="312.3" x2="704.4" y2="546.2"/>
					<line class="st18" x1="556.1" y1="312.3" x2="556.1" y2="546.2"/>
					<rect x="161.8" y="299.4" class="st16" width="140.3" height="18.8"/>
					<rect x="301.8" y="299.4" class="st0" width="440.7" height="18.8"/>
				</g>
			</g>
			<line class="st18" x1="814" y1="546.2" x2="33.8" y2="546.2"/>
		</g>
	</g>
</g>
<g id="DESIGNED_BY_FREEPIK">
</g>
</svg>
